<svg width="17" height="17" viewBox="0 0 17 17" fill="none" xmlns="http://www.w3.org/2000/svg">
<path fill-rule="evenodd" clip-rule="evenodd" d="M11.8741 0.320647C11.5808 0.636456 11.5991 1.1302 11.9149 1.42345L14.1003 3.45273L5.16281 3.45273C4.73184 3.45273 4.38248 3.8021 4.38248 4.23307C4.38248 4.66403 4.73184 5.0134 5.16281 5.0134L14.1003 5.0134L11.9149 7.04268C11.5991 7.33593 11.5808 7.82967 11.8741 8.14548C12.1673 8.46129 12.6611 8.47958 12.9769 8.18633L16.6184 4.80489C16.7774 4.65724 16.8678 4.45005 16.8678 4.23306C16.8678 4.01608 16.7774 3.80889 16.6184 3.66124L12.9769 0.279802C12.6611 -0.0134488 12.1673 0.00483793 11.8741 0.320647ZM5.21441 8.64419C4.92116 8.32838 4.42742 8.3101 4.11161 8.60335L0.470057 11.9848C0.311052 12.1324 0.220703 12.3396 0.220703 12.5566C0.220703 12.7736 0.311052 12.9808 0.470057 13.1284L4.11161 16.5099C4.42742 16.8031 4.92116 16.7848 5.21441 16.469C5.50766 16.1532 5.48937 15.6595 5.17357 15.3662L2.98818 13.3369H11.9257C12.3567 13.3369 12.706 12.9876 12.706 12.5566C12.706 12.1256 12.3567 11.7763 11.9257 11.7763H2.98818L5.17357 9.74699C5.48937 9.45374 5.50766 8.96 5.21441 8.64419Z" fill="#1C1C1C"/>
</svg>
