<svg width="13" height="13" viewBox="0 0 13 13" fill="none" xmlns="http://www.w3.org/2000/svg">
<path fill-rule="evenodd" clip-rule="evenodd" d="M6.70015 0.601807C7.05929 0.601807 7.35043 0.892946 7.35043 1.25208V5.80402H11.9024C12.2615 5.80402 12.5526 6.09516 12.5526 6.4543C12.5526 6.81344 12.2615 7.10458 11.9024 7.10458H7.35043V11.6565C7.35043 12.0157 7.05929 12.3068 6.70015 12.3068C6.34101 12.3068 6.04987 12.0157 6.04987 11.6565V7.10458H1.49793C1.1388 7.10458 0.847656 6.81344 0.847656 6.4543C0.847656 6.09516 1.1388 5.80402 1.49793 5.80402L6.04987 5.80402V1.25208C6.04987 0.892946 6.34101 0.601807 6.70015 0.601807Z" fill="#1A1A1A"/>
</svg>
