<svg width="78" height="78" viewBox="0 0 78 78" fill="none" xmlns="http://www.w3.org/2000/svg">
<rect width="78" height="78" rx="39" fill="url(#paint0_linear_1_1953)" fill-opacity="0.05"/>
<rect x="10" y="10" width="58" height="58" rx="29" fill="url(#paint1_linear_1_1953)" fill-opacity="0.1"/>
<rect x="10.5" y="10.5" width="57" height="57" rx="28.5" stroke="url(#paint2_linear_1_1953)" stroke-opacity="0.2"/>
<g clip-path="url(#clip0_1_1953)">
<path d="M41.6923 30.8784C41.7253 30.9169 41.7308 30.9279 41.7363 30.9279C42.2807 31.0049 42.5337 31.4118 42.8251 31.8187C43.1605 32.2806 43.5619 32.704 43.9908 33.0889C45.1181 34.1062 45.8109 35.3379 46.0419 36.8391C46.4433 39.4676 44.9366 42.1675 42.4622 43.2178C38.7065 44.8124 34.5109 42.3874 34.0765 38.3293C33.8455 36.1683 34.6373 34.3811 36.287 32.9734C36.8204 32.517 37.2658 31.9892 37.6342 31.3898C37.7002 31.2798 37.8212 31.1918 37.9366 31.1368C38.1236 31.0489 38.3326 30.9994 38.569 30.9169C38.492 30.8234 38.437 30.7574 38.3765 30.6914C38.0081 30.312 37.6397 29.9216 37.2658 29.5532C37.1338 29.4212 37.0733 29.2837 37.0788 29.0968C37.0898 28.3159 37.0843 27.5406 37.0843 26.7598C37.0843 26.4463 37.4692 25.946 37.7827 25.8855C38.1401 25.814 38.5085 25.7755 38.8659 25.704C38.9704 25.682 39.0859 25.616 39.1464 25.5335C39.6688 24.8297 40.5871 24.8242 41.104 25.5225C41.1754 25.616 41.3129 25.6875 41.4284 25.715C41.7583 25.7865 42.0937 25.825 42.4292 25.8855C42.7646 25.9514 43.122 26.3859 43.122 26.7268C43.122 27.5131 43.1165 28.3049 43.1275 29.0913C43.133 29.2947 43.067 29.4322 42.9296 29.5752C42.5117 29.9986 42.1102 30.433 41.6923 30.8784ZM39.3828 33.9412C39.3663 34.0072 39.3498 34.0457 39.3553 34.0787C39.4268 34.4471 39.2564 34.6066 38.9154 34.7441C38.2666 35.0135 37.9751 35.5579 37.9916 36.2562C38.0081 36.9491 38.382 37.378 39.0089 37.6035C39.2838 37.7024 39.5698 37.7739 39.8447 37.8674C40.0977 37.9499 40.3506 38.0324 40.5926 38.1313C40.796 38.2138 40.9115 38.3733 40.8895 38.6042C40.8675 38.8407 40.719 38.9782 40.5101 39.0167C40.2956 39.0606 40.0647 39.0991 39.8612 39.0496C39.4653 38.9562 39.0859 38.7967 38.668 38.6537C38.481 38.9012 38.2666 39.1816 38.0081 39.528C38.3985 39.6985 38.734 39.8745 39.0914 39.9954C39.2948 40.0614 39.3773 40.1494 39.3498 40.3584C39.3333 40.5068 39.3443 40.6608 39.3443 40.8313C39.6578 40.8313 39.9217 40.8313 40.1857 40.8313C40.5651 40.8313 40.5816 40.8313 40.5596 40.4408C40.5486 40.1989 40.6036 40.0669 40.8675 40.0339C41.005 40.0174 41.1424 39.9405 41.2689 39.869C41.8518 39.55 42.0937 39.0386 42.0827 38.3898C42.0717 37.7739 41.7638 37.3505 41.2139 37.1031C40.9665 36.9931 40.7025 36.9106 40.4386 36.8226C40.1087 36.7126 39.7787 36.6137 39.4488 36.4927C39.2454 36.4157 39.1629 36.2507 39.1794 36.0308C39.1959 35.8218 39.3223 35.6789 39.5148 35.6459C39.7457 35.6074 39.9932 35.5854 40.2186 35.6239C40.4936 35.6734 40.752 35.7998 41.0435 35.8988C41.2249 35.6184 41.4119 35.3214 41.6318 34.975C41.3789 34.8595 41.1644 34.7166 40.9335 34.6781C40.6091 34.6231 40.5101 34.4746 40.5486 34.1667C40.5596 34.0952 40.4606 33.9522 40.4001 33.9467C40.0702 33.9302 39.7238 33.9412 39.3828 33.9412Z" fill="#CAFF33"/>
<path d="M39.6799 52.989C38.5087 52.989 37.332 52.956 36.1607 53C35.3744 53.0275 34.7035 52.791 34.0711 52.3731C33.1748 51.7738 32.3555 51.0919 31.6407 50.2781C30.5849 49.0738 29.5181 47.8696 28.4624 46.6654C27.599 45.6756 27.9895 44.2129 29.2212 43.8115C29.3642 43.762 29.5291 43.7455 29.6776 43.7455C30.6564 43.74 31.6407 43.7345 32.6195 43.751C32.7569 43.751 32.9219 43.8225 33.0209 43.916C33.6917 44.5648 34.3516 45.2302 35.0059 45.8955C35.1379 46.0275 35.2589 46.055 35.4459 46.0275C35.8418 45.967 36.2487 45.912 36.6501 45.912C38.5032 45.901 40.3508 45.9065 42.2039 45.9065C42.8363 45.9065 43.3037 46.231 43.4686 46.7698C43.7216 47.5837 43.1277 48.348 42.2204 48.3535C40.9942 48.359 39.7624 48.3535 38.5362 48.3535C38.3162 48.3535 38.0963 48.348 37.8763 48.3535C37.4804 48.3645 37.222 48.6174 37.2165 48.9749C37.2165 49.3378 37.4749 49.6127 37.8653 49.6127C39.8174 49.6182 41.7695 49.6182 43.7216 49.6127C44.1175 49.6127 44.4034 49.3928 44.6784 49.1288C45.9541 47.9026 47.2298 46.6764 48.5111 45.4556C49.0334 44.9552 49.7263 44.9332 50.2212 45.3786C50.7546 45.8625 50.7656 46.6434 50.2267 47.1878C49.6603 47.7651 49.0829 48.3095 48.5111 48.8649C47.2463 50.0911 45.9816 51.3119 44.7224 52.5381C44.4144 52.835 44.0735 52.989 43.6391 52.989C42.3194 52.9835 40.9997 52.989 39.6799 52.989Z" fill="#CAFF33"/>
<path d="M33.1358 29.751C33.6691 30.2844 34.2025 30.8177 34.7249 31.3401C34.4005 31.6646 34.0596 32.0055 33.7186 32.3409C33.2127 31.8185 32.6794 31.2687 32.168 30.7408C32.4704 30.4328 32.8113 30.0809 33.1358 29.751Z" fill="#CAFF33"/>
<path d="M47.0213 29.751C47.3457 30.0754 47.6812 30.4218 47.9946 30.7353C47.4722 31.2577 46.9278 31.802 46.3999 32.3244C46.081 32.0055 45.7456 31.6591 45.4102 31.3236C45.9325 30.8122 46.4714 30.2844 47.0213 29.751Z" fill="#CAFF33"/>
<path d="M48.2865 38.4171C48.2865 37.9497 48.281 37.5208 48.292 37.0919C48.292 37.0369 48.3965 36.9379 48.4515 36.9379C49.1224 36.9269 49.7877 36.9269 50.4586 36.9379C50.5136 36.9379 50.618 37.0204 50.618 37.0644C50.629 37.5098 50.6235 37.9552 50.6235 38.4171C49.8372 38.4171 49.0784 38.4171 48.2865 38.4171Z" fill="#CAFF33"/>
<path d="M31.8556 38.4336C31.0967 38.4336 30.3874 38.4391 29.6726 38.4281C29.6176 38.4281 29.5296 38.3236 29.5241 38.2632C29.5131 37.8782 29.5076 37.4933 29.5241 37.1084C29.5241 37.0479 29.6341 36.9379 29.6945 36.9379C30.3544 36.9269 31.0143 36.9269 31.6741 36.9379C31.7346 36.9379 31.8446 37.0259 31.8446 37.0809C31.8611 37.5098 31.8556 37.9497 31.8556 38.4336Z" fill="#CAFF33"/>
</g>
<defs>
<linearGradient id="paint0_linear_1_1953" x1="39" y1="0" x2="39" y2="78" gradientUnits="userSpaceOnUse">
<stop stop-color="#CAFF33"/>
<stop offset="1" stop-color="#CAFF33" stop-opacity="0"/>
</linearGradient>
<linearGradient id="paint1_linear_1_1953" x1="39" y1="-28.4054" x2="39" y2="159.703" gradientUnits="userSpaceOnUse">
<stop stop-color="#CAFF33"/>
<stop offset="0.467671" stop-color="#CAFF33" stop-opacity="0"/>
</linearGradient>
<linearGradient id="paint2_linear_1_1953" x1="39" y1="-90.7162" x2="39" y2="120.514" gradientUnits="userSpaceOnUse">
<stop stop-color="#CAFF33"/>
<stop offset="0.716291" stop-color="#CAFF33" stop-opacity="0"/>
</linearGradient>
<clipPath id="clip0_1_1953">
<rect width="22.6277" height="28" fill="white" transform="translate(28 25)"/>
</clipPath>
</defs>
</svg>
