<svg width="12" height="16" viewBox="0 0 12 16" fill="none" xmlns="http://www.w3.org/2000/svg">
<path fill-rule="evenodd" clip-rule="evenodd" d="M11.9439 6.67242C12.1777 5.10711 10.9859 4.26564 9.35624 3.70429L9.88487 1.58388L8.59381 1.26222L8.07915 3.32675C7.7402 3.2422 7.39171 3.16242 7.04541 3.08339L7.56375 1.00526L6.27379 0.683594L5.74479 2.80326C5.46393 2.7393 5.18822 2.67607 4.92059 2.60953L4.92206 2.60291L3.14207 2.15847L2.79872 3.53702C2.79872 3.53702 3.75636 3.75649 3.73614 3.77009C4.25889 3.9006 4.35373 4.24652 4.33756 4.52076L3.7354 6.93636C3.77143 6.94556 3.81812 6.95879 3.86958 6.97938L3.73356 6.94556L2.88915 10.3295C2.82519 10.4883 2.66307 10.7265 2.29766 10.636C2.31052 10.6548 1.3595 10.4019 1.3595 10.4019L0.71875 11.8797L2.39875 12.2984C2.5884 12.3459 2.77574 12.3948 2.96103 12.4431C3.08103 12.4745 3.20018 12.5055 3.31853 12.5359L2.78438 14.6809L4.07361 15.0026L4.60297 12.8807C4.95478 12.9763 5.29666 13.0645 5.6312 13.1476L5.10403 15.2595L6.39473 15.5812L6.92888 13.4406C9.12979 13.8571 10.7852 13.6891 11.4811 11.6988C12.0424 10.096 11.4535 9.17147 10.2955 8.56821C11.1388 8.37301 11.774 7.81827 11.9435 6.67242H11.9439ZM8.99443 10.8077C8.62801 12.2788 6.32492 11.6701 5.27209 11.3918L5.27199 11.3918C5.17775 11.3669 5.09353 11.3446 5.02161 11.3268L5.73037 8.48546C5.8183 8.50741 5.92573 8.53151 6.04743 8.55882C7.13663 8.80324 9.36879 9.30413 8.9948 10.8077H8.99443ZM6.26629 7.24043C7.14478 7.47479 9.05965 7.98565 9.39323 6.6493C9.73427 5.28217 7.87225 4.87011 6.96287 4.66887C6.86064 4.64624 6.77044 4.62628 6.69677 4.60793L6.05418 7.18492C6.11499 7.20006 6.18635 7.2191 6.26629 7.24043Z" fill="#CAFF33"/>
</svg>
