<svg width="11" height="18" viewBox="0 0 11 18" fill="none" xmlns="http://www.w3.org/2000/svg">
<path fill-rule="evenodd" clip-rule="evenodd" d="M3.96681 0.683594C4.91917 0.683594 5.86802 0.683594 6.82038 0.683594C6.76436 1.32783 6.70484 1.97558 6.65232 2.61982C7.76223 2.70035 8.84413 3.05748 9.8175 3.58618C9.39734 4.64357 8.97368 5.70096 8.55002 6.75836C7.73072 6.0616 6.65232 5.67646 5.57742 5.69046C5.30782 5.69746 5.02771 5.74998 4.80363 5.90404C4.65657 6.00558 4.54803 6.16314 4.51652 6.3382C4.49201 6.47825 4.49901 6.63581 4.57604 6.76186C4.66357 6.90191 4.81763 6.98594 4.97169 7.03846C5.28681 7.15051 5.62643 7.15751 5.95556 7.19252C6.72935 7.28706 7.50664 7.42011 8.23841 7.69671C8.80562 7.91379 9.34832 8.23941 9.73697 8.71559C10.1046 9.15325 10.3182 9.70646 10.3987 10.2737C10.4932 10.9284 10.4652 11.6077 10.2622 12.2449C10.1046 12.7561 9.835 13.2323 9.48487 13.6349C8.7601 14.4752 7.69571 14.9794 6.6033 15.109C6.63831 15.7987 6.68033 16.485 6.71884 17.1747C5.8155 17.1747 4.91567 17.1747 4.01583 17.1747C4.05085 16.492 4.09636 15.8092 4.12787 15.1265C3.4031 15.102 2.68534 14.9409 2.00958 14.6853C1.35484 14.4367 0.731607 14.1076 0.150391 13.7225C0.57755 12.623 1.00471 11.5236 1.43537 10.4207C1.92205 10.8304 2.44024 11.212 3.00746 11.5026C3.61668 11.8142 4.29244 12.0138 4.97869 12.0208C5.30431 12.0243 5.64044 12.0068 5.94855 11.8948C6.13762 11.8247 6.32319 11.7022 6.40723 11.5096C6.49476 11.3066 6.48776 11.051 6.35471 10.8689C6.26017 10.7463 6.12712 10.6623 5.98707 10.6028C5.798 10.5258 5.60192 10.4837 5.40235 10.4522C4.66708 10.3332 3.9283 10.2352 3.21754 10.0041C2.64682 9.8185 2.09011 9.5594 1.63494 9.16026C1.34784 8.91166 1.10975 8.60705 0.941686 8.26392C0.689592 7.75273 0.595057 7.17501 0.602059 6.6078C0.602059 5.97407 0.731607 5.32983 1.04673 4.77312C1.31983 4.27593 1.73648 3.86978 2.20566 3.55817C2.77287 3.18353 3.40661 2.92793 4.05085 2.72135C4.02284 2.0421 3.99483 1.36285 3.96681 0.683594Z" fill="#CAFF33"/>
</svg>
